<?xml version="1.0" encoding="iso-8859-1"?>
<!-- Generator: Adobe Illustrator 16.0.0, SVG Export Plug-In . SVG Version: 6.00 Build 0)  -->
<!DOCTYPE svg PUBLIC "-//W3C//DTD SVG 1.1//EN" "http://www.w3.org/Graphics/SVG/1.1/DTD/svg11.dtd">
<svg version="1.1" id="Capa_1" xmlns="http://www.w3.org/2000/svg" xmlns:xlink="http://www.w3.org/1999/xlink" x="0px" y="0px"
	 width="569.695px" height="569.695px" viewBox="0 0 569.695 569.695" style="enable-background:new 0 0 569.695 569.695; fill:#FFF"
	 xml:space="preserve" >
<g>
	<circle cx="375.994" cy="510.828" r="4.523"/>
	<path d="M445.875,543.561V26.144C445.875,11.733,434.152,0,419.732,0H149.964c-14.42,0-26.144,11.733-26.144,26.144v517.417
		c0,14.412,11.733,26.135,26.144,26.135h269.768C434.152,569.695,445.875,557.973,445.875,543.561z M402.863,23.753
		c4.59,0,8.311,3.729,8.311,8.3c0,4.581-3.721,8.31-8.311,8.31c-4.57,0-8.291-3.729-8.291-8.31
		C394.572,27.473,398.293,23.753,402.863,23.753z M269.811,27.292c3.404-0.784,8.836-1.722,15.521-1.722l1.395,0.02
		c7.154,0.143,13.035,1.1,16.717,1.874c3.346,0.708,4.607,2.754,4.686,4.427c0.076,1.597-0.957,3.634-3.998,4.562
		c-4.59,1.387-10.461,2.084-17.441,2.084c-7,0-12.891-0.698-17.442-2.084c-3.06-0.928-4.093-2.993-4.036-4.628
		C265.278,30.131,266.521,28.047,269.811,27.292z M199.029,511.211c-0.612,0.889-1.721,1.053-2.706,0.717v10.949
		c0,1.32-1.062,2.391-2.391,2.391h-15.443c-1.329,0-2.391-1.07-2.391-2.391v-10.891c-0.258,0.086-0.507,0.229-0.765,0.229
		c-0.765,0-1.511-0.373-1.979-1.051c-0.727-1.092-0.449-2.582,0.631-3.318l2.783-1.885c0.057-0.076,0.153-0.096,0.239-0.162
		l8.051-5.461c0.842-0.562,1.903-0.555,2.707,0.02l10.681,7.508C199.536,508.639,199.794,510.131,199.029,511.211z M257.447,525.277
		H239.46c-1.31,0-2.391-1.07-2.391-2.391s1.081-2.391,2.391-2.391h17.987c1.31,0,2.391,1.07,2.391,2.391
		S258.757,525.277,257.447,525.277z M257.447,517.627H239.46c-1.31,0-2.391-1.07-2.391-2.391c0-1.318,1.081-2.391,2.391-2.391
		h17.987c1.31,0,2.391,1.072,2.391,2.391C259.837,516.557,258.757,517.627,257.447,517.627z M257.447,510.111H239.46
		c-1.31,0-2.391-1.07-2.391-2.391s1.081-2.391,2.391-2.391h17.987c1.31,0,2.391,1.07,2.391,2.391S258.757,510.111,257.447,510.111z
		 M324.613,525.469c-0.201,1.156-1.195,1.971-2.352,1.971c-0.135,0-0.258-0.01-0.393-0.029c-1.311-0.221-2.189-1.463-1.961-2.764
		c0.24-1.443,0.469-5.689-1.414-7.918c-0.938-1.09-2.275-1.635-4.312-1.615l-4.523,0.018v3.578l-10.309-5.959l10.309-5.957v3.557
		l4.484-0.018c0.039,0,0.076,0,0.115,0c4.188,0,6.588,1.797,7.879,3.318C325.791,517.98,324.738,524.713,324.613,525.469z
		 M385.088,524.045c0.562,1.195,0.037,2.619-1.158,3.174c-0.314,0.152-0.67,0.221-1.014,0.221c-0.898,0-1.76-0.518-2.16-1.387
		l-2.918-6.303c-0.611,0.135-1.195,0.373-1.844,0.373c-5.117,0-9.305-4.178-9.305-9.305c0-5.135,4.188-9.312,9.305-9.312
		c5.135,0,9.322,4.178,9.322,9.312c0,2.754-1.252,5.164-3.156,6.877L385.088,524.045z M424.379,481.385
		c0,1.98-1.605,3.586-3.586,3.586H148.922c-1.979,0-3.586-1.605-3.586-3.586V56.706c0-1.979,1.606-3.586,3.586-3.586h271.881
		c1.98,0,3.586,1.606,3.586,3.586v424.679H424.379z"/>
</g>
<g>
</g>
<g>
</g>
<g>
</g>
<g>
</g>
<g>
</g>
<g>
</g>
<g>
</g>
<g>
</g>
<g>
</g>
<g>
</g>
<g>
</g>
<g>
</g>
<g>
</g>
<g>
</g>
<g>
</g>
</svg>
